<svg width="20" height="20" viewBox="0 0 20 20" fill="none" xmlns="http://www.w3.org/2000/svg">
<g clip-path="url(#clip0_102_2713)">
<path d="M19.2628 10.2333C19.2628 9.53773 19.2001 8.87218 19.0838 8.23218H10.0811V11.8988L15.2659 11.9C15.0556 13.12 14.3788 14.1599 13.3419 14.8533V17.2322H16.4282C18.2303 15.5755 19.2628 13.1266 19.2628 10.2333Z" fill="#4285F4"/>
<path d="M13.343 14.8533C12.4839 15.4289 11.3775 15.7656 10.0833 15.7656C7.58315 15.7656 5.46222 14.0922 4.70267 11.8367H1.51904V14.29C3.09631 17.3989 6.33811 19.5322 10.0833 19.5322C12.6718 19.5322 14.8464 18.6867 16.4293 17.2311L13.343 14.8533Z" fill="#34A853"/>
<path d="M4.4029 10.0166C4.4029 9.3833 4.50917 8.77108 4.7027 8.19552V5.74219H1.51907C0.86691 7.02774 0.5 8.47885 0.5 10.0166C0.5 11.5544 0.868028 13.0055 1.51907 14.2911L4.7027 11.8377C4.50917 11.2622 4.4029 10.65 4.4029 10.0166Z" fill="#FABB05"/>
<path d="M10.0833 4.26666C11.4961 4.26666 12.7613 4.75 13.7602 5.69444L16.4953 2.98C14.8341 1.44333 12.6684 0.5 10.0833 0.5C6.33923 0.5 3.09631 2.63333 1.51904 5.74222L4.70267 8.19555C5.46222 5.94 7.58315 4.26666 10.0833 4.26666Z" fill="#E94235"/>
</g>
<defs>
<clipPath id="clip0_102_2713">
<rect width="19" height="19" fill="white" transform="translate(0.5 0.5)"/>
</clipPath>
</defs>
</svg>
