<svg width="18" height="18" viewBox="0 0 18 18" fill="none" xmlns="http://www.w3.org/2000/svg">
<path fill-rule="evenodd" clip-rule="evenodd" d="M3.87354 1.00733C3.92383 1.09872 4.03305 1.13697 4.12186 1.1917L4.92035 1.68392C4.95987 1.70936 4.99238 1.74432 5.0149 1.78558C5.03741 1.82684 5.04921 1.87309 5.04921 1.9201C5.04921 1.96711 5.03741 2.01336 5.0149 2.05462C4.99238 2.09588 4.95987 2.13084 4.92035 2.15627L3.98842 2.66691C3.93954 2.68676 3.89897 2.72281 3.87354 2.76904L3.37565 3.70096C3.35021 3.74048 3.31527 3.773 3.27401 3.79551C3.23275 3.81802 3.18649 3.82982 3.13949 3.82982C3.09248 3.82982 3.04622 3.81802 3.00496 3.79551C2.96371 3.773 2.92875 3.74048 2.90331 3.70096L2.39268 2.76904C2.36917 2.72588 2.33371 2.69041 2.29055 2.66691L1.35862 2.15627C1.3191 2.13084 1.28659 2.09588 1.26407 2.05462C1.24156 2.01336 1.22976 1.96711 1.22976 1.9201C1.22976 1.87309 1.24156 1.82684 1.26407 1.78558C1.28659 1.74432 1.3191 1.70936 1.35862 1.68392L2.29055 1.17328C2.33371 1.14978 2.36917 1.11432 2.39268 1.07116L2.90331 0.139234C2.92875 0.0997127 2.96371 0.0671997 3.00496 0.0446841C3.04622 0.0221684 3.09248 0.010376 3.13949 0.010376C3.18649 0.010376 3.23275 0.0221684 3.27401 0.0446841C3.31527 0.0671997 3.35021 0.0997127 3.37565 0.139234L3.87354 1.00733ZM6.41183 9.29516L9.23484 10.79C9.3647 10.8632 9.47213 10.9705 9.54536 11.1002L11.0416 13.9206C11.1057 14.0449 11.2028 14.1492 11.3224 14.222C11.4419 14.2948 11.5791 14.3333 11.7191 14.3333C11.8591 14.3333 11.9964 14.2948 12.1158 14.222C12.2354 14.1492 12.3325 14.0449 12.3967 13.9206L13.9211 11.1002C13.9495 11.0304 13.9916 10.9669 14.045 10.9136C14.0982 10.8604 14.1617 10.8184 14.2316 10.79L17.0546 9.29516C17.1781 9.22689 17.2812 9.12672 17.3529 9.00517C17.4246 8.88371 17.4624 8.74516 17.4624 8.60413C17.4624 8.46309 17.4246 8.32454 17.3529 8.20308C17.2812 8.08153 17.1781 7.98146 17.0546 7.91309L14.2316 6.41829C14.1018 6.34506 13.9943 6.23778 13.9211 6.10804L12.3967 3.28761C12.3325 3.16331 12.2354 3.05905 12.1158 2.98626C11.9964 2.91347 11.8591 2.87496 11.7191 2.87496C11.5791 2.87496 11.4419 2.91347 11.3224 2.98626C11.2028 3.05905 11.1057 3.16331 11.0416 3.28761L9.6483 5.9141C9.58002 6.04267 9.49304 6.16034 9.3901 6.26321C9.28717 6.36602 9.16953 6.4529 9.04091 6.52096L6.41183 7.91309C6.28829 7.98146 6.18531 8.08153 6.1136 8.20308C6.04189 8.32454 6.00407 8.46309 6.00407 8.60413C6.00407 8.74516 6.04189 8.88371 6.1136 9.00517C6.18531 9.12672 6.28829 9.22689 6.41183 9.29516ZM4.61304 13.2407C4.47984 13.1586 4.316 13.1012 4.24056 12.9641L3.49374 11.662C3.45558 11.6027 3.40316 11.554 3.34127 11.5202C3.27937 11.4864 3.20999 11.4687 3.13949 11.4687C3.06898 11.4687 2.9996 11.4864 2.9377 11.5202C2.87581 11.554 2.82338 11.6027 2.78522 11.662L2.01927 13.0599C1.98401 13.1246 1.93081 13.1778 1.86607 13.213L0.468195 13.979C0.408908 14.0172 0.360133 14.0697 0.32636 14.1315C0.292596 14.1934 0.274902 14.2628 0.274902 14.3333C0.274902 14.4038 0.292596 14.4732 0.32636 14.5351C0.360133 14.5969 0.408908 14.6494 0.468195 14.6875L1.86607 15.4535C1.93081 15.4888 1.98401 15.542 2.01927 15.6067L2.78522 17.0046C2.82338 17.0639 2.87581 17.1126 2.9377 17.1464C2.9996 17.1802 3.06898 17.1979 3.13949 17.1979C3.20999 17.1979 3.27937 17.1802 3.34127 17.1464C3.40316 17.1126 3.45558 17.0639 3.49374 17.0046L4.24056 15.6067C4.27871 15.5374 4.33956 15.4832 4.4129 15.4535L5.81078 14.6875C5.87006 14.6494 5.91883 14.5969 5.9526 14.5351C5.98637 14.4732 6.00407 14.4038 6.00407 14.3333C6.00407 14.2628 5.98637 14.1934 5.9526 14.1315C5.91883 14.0697 5.87006 14.0172 5.81078 13.979L4.61304 13.2407Z" fill="url(#paint0_linear_107_3319)"/>
<path fill-rule="evenodd" clip-rule="evenodd" d="M3.87354 1.00733C3.92383 1.09872 4.03305 1.13697 4.12186 1.1917L4.92035 1.68392C4.95987 1.70936 4.99238 1.74432 5.0149 1.78558C5.03741 1.82684 5.04921 1.87309 5.04921 1.9201C5.04921 1.96711 5.03741 2.01336 5.0149 2.05462C4.99238 2.09588 4.95987 2.13084 4.92035 2.15627L3.98842 2.66691C3.93954 2.68676 3.89897 2.72281 3.87354 2.76904L3.37565 3.70096C3.35021 3.74048 3.31527 3.773 3.27401 3.79551C3.23275 3.81802 3.18649 3.82982 3.13949 3.82982C3.09248 3.82982 3.04622 3.81802 3.00496 3.79551C2.96371 3.773 2.92875 3.74048 2.90331 3.70096L2.39268 2.76904C2.36917 2.72588 2.33371 2.69041 2.29055 2.66691L1.35862 2.15627C1.3191 2.13084 1.28659 2.09588 1.26407 2.05462C1.24156 2.01336 1.22976 1.96711 1.22976 1.9201C1.22976 1.87309 1.24156 1.82684 1.26407 1.78558C1.28659 1.74432 1.3191 1.70936 1.35862 1.68392L2.29055 1.17328C2.33371 1.14978 2.36917 1.11432 2.39268 1.07116L2.90331 0.139234C2.92875 0.0997127 2.96371 0.0671997 3.00496 0.0446841C3.04622 0.0221684 3.09248 0.010376 3.13949 0.010376C3.18649 0.010376 3.23275 0.0221684 3.27401 0.0446841C3.31527 0.0671997 3.35021 0.0997127 3.37565 0.139234L3.87354 1.00733ZM6.41183 9.29516L9.23484 10.79C9.3647 10.8632 9.47213 10.9705 9.54536 11.1002L11.0416 13.9206C11.1057 14.0449 11.2028 14.1492 11.3224 14.222C11.4419 14.2948 11.5791 14.3333 11.7191 14.3333C11.8591 14.3333 11.9964 14.2948 12.1158 14.222C12.2354 14.1492 12.3325 14.0449 12.3967 13.9206L13.9211 11.1002C13.9495 11.0304 13.9916 10.9669 14.045 10.9136C14.0982 10.8604 14.1617 10.8184 14.2316 10.79L17.0546 9.29516C17.1781 9.22689 17.2812 9.12672 17.3529 9.00517C17.4246 8.88371 17.4624 8.74516 17.4624 8.60413C17.4624 8.46309 17.4246 8.32454 17.3529 8.20308C17.2812 8.08153 17.1781 7.98146 17.0546 7.91309L14.2316 6.41829C14.1018 6.34506 13.9943 6.23778 13.9211 6.10804L12.3967 3.28761C12.3325 3.16331 12.2354 3.05905 12.1158 2.98626C11.9964 2.91347 11.8591 2.87496 11.7191 2.87496C11.5791 2.87496 11.4419 2.91347 11.3224 2.98626C11.2028 3.05905 11.1057 3.16331 11.0416 3.28761L9.6483 5.9141C9.58002 6.04267 9.49304 6.16034 9.3901 6.26321C9.28717 6.36602 9.16953 6.4529 9.04091 6.52096L6.41183 7.91309C6.28829 7.98146 6.18531 8.08153 6.1136 8.20308C6.04189 8.32454 6.00407 8.46309 6.00407 8.60413C6.00407 8.74516 6.04189 8.88371 6.1136 9.00517C6.18531 9.12672 6.28829 9.22689 6.41183 9.29516ZM4.61304 13.2407C4.47984 13.1586 4.316 13.1012 4.24056 12.9641L3.49374 11.662C3.45558 11.6027 3.40316 11.554 3.34127 11.5202C3.27937 11.4864 3.20999 11.4687 3.13949 11.4687C3.06898 11.4687 2.9996 11.4864 2.9377 11.5202C2.87581 11.554 2.82338 11.6027 2.78522 11.662L2.01927 13.0599C1.98401 13.1246 1.93081 13.1778 1.86607 13.213L0.468195 13.979C0.408908 14.0172 0.360133 14.0697 0.32636 14.1315C0.292596 14.1934 0.274902 14.2628 0.274902 14.3333C0.274902 14.4038 0.292596 14.4732 0.32636 14.5351C0.360133 14.5969 0.408908 14.6494 0.468195 14.6875L1.86607 15.4535C1.93081 15.4888 1.98401 15.542 2.01927 15.6067L2.78522 17.0046C2.82338 17.0639 2.87581 17.1126 2.9377 17.1464C2.9996 17.1802 3.06898 17.1979 3.13949 17.1979C3.20999 17.1979 3.27937 17.1802 3.34127 17.1464C3.40316 17.1126 3.45558 17.0639 3.49374 17.0046L4.24056 15.6067C4.27871 15.5374 4.33956 15.4832 4.4129 15.4535L5.81078 14.6875C5.87006 14.6494 5.91883 14.5969 5.9526 14.5351C5.98637 14.4732 6.00407 14.4038 6.00407 14.3333C6.00407 14.2628 5.98637 14.1934 5.9526 14.1315C5.91883 14.0697 5.87006 14.0172 5.81078 13.979L4.61304 13.2407Z" fill="white"/>
<defs>
<linearGradient id="paint0_linear_107_3319" x1="8.86865" y1="0.010376" x2="8.86865" y2="17.1979" gradientUnits="userSpaceOnUse">
<stop offset="0.0279863" stop-color="#CCB2FF"/>
<stop offset="0.281157" stop-color="#AA81FE"/>
<stop offset="1" stop-color="#6419FF"/>
</linearGradient>
</defs>
</svg>
