<svg width="24" height="24" viewBox="0 0 24 24" fill="none" xmlns="http://www.w3.org/2000/svg">
<path fill-rule="evenodd" clip-rule="evenodd" d="M6.87354 4.00769C6.92383 4.09908 7.03305 4.13734 7.12186 4.19207L7.92035 4.68429C7.95987 4.70973 7.99238 4.74468 8.0149 4.78594C8.03741 4.8272 8.04921 4.87346 8.04921 4.92046C8.04921 4.96747 8.03741 5.01373 8.0149 5.05499C7.99238 5.09624 7.95987 5.1312 7.92035 5.15664L6.98842 5.66728C6.93954 5.68712 6.89897 5.72318 6.87354 5.7694L6.37565 6.70133C6.35021 6.74085 6.31527 6.77336 6.27401 6.79588C6.23275 6.81838 6.18649 6.83019 6.13949 6.83019C6.09248 6.83019 6.04622 6.81838 6.00496 6.79588C5.96371 6.77336 5.92875 6.74085 5.90331 6.70133L5.39268 5.7694C5.36917 5.72624 5.33371 5.69078 5.29055 5.66728L4.35862 5.15664C4.3191 5.1312 4.28659 5.09624 4.26407 5.05499C4.24156 5.01373 4.22976 4.96747 4.22976 4.92046C4.22976 4.87346 4.24156 4.8272 4.26407 4.78594C4.28659 4.74468 4.3191 4.70973 4.35862 4.68429L5.29055 4.17365C5.33371 4.15015 5.36917 4.11469 5.39268 4.07153L5.90331 3.1396C5.92875 3.10008 5.96371 3.06757 6.00496 3.04505C6.04622 3.02253 6.09248 3.01074 6.13949 3.01074C6.18649 3.01074 6.23275 3.02253 6.27401 3.04505C6.31527 3.06757 6.35021 3.10008 6.37565 3.1396L6.87354 4.00769ZM9.41183 12.2955L12.2348 13.7904C12.3647 13.8636 12.4721 13.9708 12.5454 14.1006L14.0416 16.921C14.1057 17.0453 14.2028 17.1496 14.3224 17.2223C14.4419 17.2952 14.5791 17.3337 14.7191 17.3337C14.8591 17.3337 14.9964 17.2952 15.1158 17.2223C15.2354 17.1496 15.3325 17.0453 15.3967 16.921L16.9211 14.1006C16.9495 14.0308 16.9916 13.9673 17.045 13.914C17.0982 13.8607 17.1617 13.8187 17.2316 13.7904L20.0546 12.2955C20.1781 12.2273 20.2812 12.1271 20.3529 12.0055C20.4246 11.8841 20.4624 11.7455 20.4624 11.6045C20.4624 11.4635 20.4246 11.3249 20.3529 11.2035C20.2812 11.0819 20.1781 10.9818 20.0546 10.9135L17.2316 9.41865C17.1018 9.34542 16.9943 9.23815 16.9211 9.10841L15.3967 6.28798C15.3325 6.16367 15.2354 6.05941 15.1158 5.98662C14.9964 5.91384 14.8591 5.87533 14.7191 5.87533C14.5791 5.87533 14.4419 5.91384 14.3224 5.98662C14.2028 6.05941 14.1057 6.16367 14.0416 6.28798L12.6483 8.91447C12.58 9.04304 12.493 9.16071 12.3901 9.26357C12.2872 9.36638 12.1695 9.45327 12.0409 9.52133L9.41183 10.9135C9.28829 10.9818 9.18531 11.0819 9.1136 11.2035C9.04189 11.3249 9.00407 11.4635 9.00407 11.6045C9.00407 11.7455 9.04189 11.8841 9.1136 12.0055C9.18531 12.1271 9.28829 12.2273 9.41183 12.2955ZM7.61304 16.2411C7.47984 16.159 7.316 16.1016 7.24056 15.9645L6.49374 14.6623C6.45558 14.603 6.40316 14.5543 6.34127 14.5205C6.27937 14.4867 6.20999 14.4691 6.13949 14.4691C6.06898 14.4691 5.9996 14.4867 5.9377 14.5205C5.87581 14.5543 5.82338 14.603 5.78522 14.6623L5.01927 16.0603C4.98401 16.125 4.93081 16.1782 4.86607 16.2134L3.46819 16.9794C3.40891 17.0176 3.36013 17.07 3.32636 17.1319C3.2926 17.1938 3.2749 17.2632 3.2749 17.3337C3.2749 17.4041 3.2926 17.4735 3.32636 17.5354C3.36013 17.5973 3.40891 17.6497 3.46819 17.6879L4.86607 18.4539C4.93081 18.4891 4.98401 18.5423 5.01927 18.6071L5.78522 20.005C5.82338 20.0643 5.87581 20.113 5.9377 20.1468C5.9996 20.1806 6.06898 20.1982 6.13949 20.1982C6.20999 20.1982 6.27937 20.1806 6.34127 20.1468C6.40316 20.113 6.45558 20.0643 6.49374 20.005L7.24056 18.6071C7.27871 18.5377 7.33956 18.4836 7.4129 18.4539L8.81078 17.6879C8.87006 17.6497 8.91883 17.5973 8.9526 17.5354C8.98637 17.4735 9.00407 17.4041 9.00407 17.3337C9.00407 17.2632 8.98637 17.1938 8.9526 17.1319C8.91883 17.07 8.87006 17.0176 8.81078 16.9794L7.61304 16.2411Z" fill="url(#paint0_linear_1_5084)"/>
<path fill-rule="evenodd" clip-rule="evenodd" d="M6.87354 4.00769C6.92383 4.09908 7.03305 4.13734 7.12186 4.19207L7.92035 4.68429C7.95987 4.70973 7.99238 4.74468 8.0149 4.78594C8.03741 4.8272 8.04921 4.87346 8.04921 4.92046C8.04921 4.96747 8.03741 5.01373 8.0149 5.05499C7.99238 5.09624 7.95987 5.1312 7.92035 5.15664L6.98842 5.66728C6.93954 5.68712 6.89897 5.72318 6.87354 5.7694L6.37565 6.70133C6.35021 6.74085 6.31527 6.77336 6.27401 6.79588C6.23275 6.81838 6.18649 6.83019 6.13949 6.83019C6.09248 6.83019 6.04622 6.81838 6.00496 6.79588C5.96371 6.77336 5.92875 6.74085 5.90331 6.70133L5.39268 5.7694C5.36917 5.72624 5.33371 5.69078 5.29055 5.66728L4.35862 5.15664C4.3191 5.1312 4.28659 5.09624 4.26407 5.05499C4.24156 5.01373 4.22976 4.96747 4.22976 4.92046C4.22976 4.87346 4.24156 4.8272 4.26407 4.78594C4.28659 4.74468 4.3191 4.70973 4.35862 4.68429L5.29055 4.17365C5.33371 4.15015 5.36917 4.11469 5.39268 4.07153L5.90331 3.1396C5.92875 3.10008 5.96371 3.06757 6.00496 3.04505C6.04622 3.02253 6.09248 3.01074 6.13949 3.01074C6.18649 3.01074 6.23275 3.02253 6.27401 3.04505C6.31527 3.06757 6.35021 3.10008 6.37565 3.1396L6.87354 4.00769ZM9.41183 12.2955L12.2348 13.7904C12.3647 13.8636 12.4721 13.9708 12.5454 14.1006L14.0416 16.921C14.1057 17.0453 14.2028 17.1496 14.3224 17.2223C14.4419 17.2952 14.5791 17.3337 14.7191 17.3337C14.8591 17.3337 14.9964 17.2952 15.1158 17.2223C15.2354 17.1496 15.3325 17.0453 15.3967 16.921L16.9211 14.1006C16.9495 14.0308 16.9916 13.9673 17.045 13.914C17.0982 13.8607 17.1617 13.8187 17.2316 13.7904L20.0546 12.2955C20.1781 12.2273 20.2812 12.1271 20.3529 12.0055C20.4246 11.8841 20.4624 11.7455 20.4624 11.6045C20.4624 11.4635 20.4246 11.3249 20.3529 11.2035C20.2812 11.0819 20.1781 10.9818 20.0546 10.9135L17.2316 9.41865C17.1018 9.34542 16.9943 9.23815 16.9211 9.10841L15.3967 6.28798C15.3325 6.16367 15.2354 6.05941 15.1158 5.98662C14.9964 5.91384 14.8591 5.87533 14.7191 5.87533C14.5791 5.87533 14.4419 5.91384 14.3224 5.98662C14.2028 6.05941 14.1057 6.16367 14.0416 6.28798L12.6483 8.91447C12.58 9.04304 12.493 9.16071 12.3901 9.26357C12.2872 9.36638 12.1695 9.45327 12.0409 9.52133L9.41183 10.9135C9.28829 10.9818 9.18531 11.0819 9.1136 11.2035C9.04189 11.3249 9.00407 11.4635 9.00407 11.6045C9.00407 11.7455 9.04189 11.8841 9.1136 12.0055C9.18531 12.1271 9.28829 12.2273 9.41183 12.2955ZM7.61304 16.2411C7.47984 16.159 7.316 16.1016 7.24056 15.9645L6.49374 14.6623C6.45558 14.603 6.40316 14.5543 6.34127 14.5205C6.27937 14.4867 6.20999 14.4691 6.13949 14.4691C6.06898 14.4691 5.9996 14.4867 5.9377 14.5205C5.87581 14.5543 5.82338 14.603 5.78522 14.6623L5.01927 16.0603C4.98401 16.125 4.93081 16.1782 4.86607 16.2134L3.46819 16.9794C3.40891 17.0176 3.36013 17.07 3.32636 17.1319C3.2926 17.1938 3.2749 17.2632 3.2749 17.3337C3.2749 17.4041 3.2926 17.4735 3.32636 17.5354C3.36013 17.5973 3.40891 17.6497 3.46819 17.6879L4.86607 18.4539C4.93081 18.4891 4.98401 18.5423 5.01927 18.6071L5.78522 20.005C5.82338 20.0643 5.87581 20.113 5.9377 20.1468C5.9996 20.1806 6.06898 20.1982 6.13949 20.1982C6.20999 20.1982 6.27937 20.1806 6.34127 20.1468C6.40316 20.113 6.45558 20.0643 6.49374 20.005L7.24056 18.6071C7.27871 18.5377 7.33956 18.4836 7.4129 18.4539L8.81078 17.6879C8.87006 17.6497 8.91883 17.5973 8.9526 17.5354C8.98637 17.4735 9.00407 17.4041 9.00407 17.3337C9.00407 17.2632 8.98637 17.1938 8.9526 17.1319C8.91883 17.07 8.87006 17.0176 8.81078 16.9794L7.61304 16.2411Z" fill="white"/>
<defs>
<linearGradient id="paint0_linear_1_5084" x1="11.8687" y1="3.01074" x2="11.8687" y2="20.1982" gradientUnits="userSpaceOnUse">
<stop offset="0.0279863" stop-color="#CCB2FF"/>
<stop offset="0.281157" stop-color="#AA81FE"/>
<stop offset="1" stop-color="#6419FF"/>
</linearGradient>
</defs>
</svg>
