<svg width="29" height="29" viewBox="0 0 29 29" fill="none" xmlns="http://www.w3.org/2000/svg">
<path d="M22.1001 20.3574L27.7249 25.9808L25.8666 27.8391L20.2431 22.2143C18.1507 23.8917 15.5481 24.804 12.8664 24.8002C6.34202 24.8002 1.04688 19.505 1.04688 12.9807C1.04688 6.45628 6.34202 1.16113 12.8664 1.16113C19.3908 1.16113 24.6859 6.45628 24.6859 12.9807C24.6898 15.6624 23.7774 18.265 22.1001 20.3574ZM19.4656 19.3829C21.132 17.6687 22.0627 15.3713 22.0594 12.9807C22.0594 7.9022 17.9449 3.78769 12.8664 3.78769C7.78795 3.78769 3.67344 7.9022 3.67344 12.9807C3.67344 18.0591 7.78795 22.1736 12.8664 22.1736C15.2571 22.177 17.5544 21.2462 19.2687 19.5799L19.4656 19.3829Z" fill="#6366F1" stroke="#6366F1" stroke-width="0.889266"/>
</svg>
