<svg width="17" height="19" viewBox="0 0 17 19" fill="none" xmlns="http://www.w3.org/2000/svg">
<path d="M6.61111 15.347C6.86159 15.347 7.10182 15.2522 7.27893 15.0834C7.45605 14.9146 7.55556 14.6857 7.55556 14.447V9.04702C7.55556 8.80833 7.45605 8.57941 7.27893 8.41063C7.10182 8.24184 6.86159 8.14702 6.61111 8.14702C6.36063 8.14702 6.12041 8.24184 5.94329 8.41063C5.76617 8.57941 5.66667 8.80833 5.66667 9.04702V14.447C5.66667 14.6857 5.76617 14.9146 5.94329 15.0834C6.12041 15.2522 6.36063 15.347 6.61111 15.347ZM16.0556 4.54702H12.2778V3.64702C12.2778 2.93094 11.9793 2.24418 11.4479 1.73783C10.9166 1.23149 10.1959 0.947021 9.44444 0.947021H7.55556C6.80411 0.947021 6.08344 1.23149 5.55209 1.73783C5.02073 2.24418 4.72222 2.93094 4.72222 3.64702V4.54702H0.944444C0.693962 4.54702 0.453739 4.64184 0.276621 4.81063C0.0995036 4.97941 0 5.20833 0 5.44702C0 5.68572 0.0995036 5.91463 0.276621 6.08342C0.453739 6.2522 0.693962 6.34702 0.944444 6.34702H1.88889V16.247C1.88889 16.9631 2.1874 17.6499 2.71875 18.1562C3.25011 18.6626 3.97078 18.947 4.72222 18.947H12.2778C13.0292 18.947 13.7499 18.6626 14.2812 18.1562C14.8126 17.6499 15.1111 16.9631 15.1111 16.247V6.34702H16.0556C16.306 6.34702 16.5463 6.2522 16.7234 6.08342C16.9005 5.91463 17 5.68572 17 5.44702C17 5.20833 16.9005 4.97941 16.7234 4.81063C16.5463 4.64184 16.306 4.54702 16.0556 4.54702ZM6.61111 3.64702C6.61111 3.40833 6.71061 3.17941 6.88773 3.01063C7.06485 2.84184 7.30507 2.74702 7.55556 2.74702H9.44444C9.69493 2.74702 9.93515 2.84184 10.1123 3.01063C10.2894 3.17941 10.3889 3.40833 10.3889 3.64702V4.54702H6.61111V3.64702ZM13.2222 16.247C13.2222 16.4857 13.1227 16.7146 12.9456 16.8834C12.7685 17.0522 12.5283 17.147 12.2778 17.147H4.72222C4.47174 17.147 4.23152 17.0522 4.0544 16.8834C3.87728 16.7146 3.77778 16.4857 3.77778 16.247V6.34702H13.2222V16.247ZM10.3889 15.347C10.6394 15.347 10.8796 15.2522 11.0567 15.0834C11.2338 14.9146 11.3333 14.6857 11.3333 14.447V9.04702C11.3333 8.80833 11.2338 8.57941 11.0567 8.41063C10.8796 8.24184 10.6394 8.14702 10.3889 8.14702C10.1384 8.14702 9.89818 8.24184 9.72107 8.41063C9.54395 8.57941 9.44444 8.80833 9.44444 9.04702V14.447C9.44444 14.6857 9.54395 14.9146 9.72107 15.0834C9.89818 15.2522 10.1384 15.347 10.3889 15.347Z" fill="#EAEAEA"/>
</svg>
