<svg width="20" height="21" viewBox="0 0 20 21" fill="none" xmlns="http://www.w3.org/2000/svg">
<path d="M10 4.94702C9.73478 4.94702 9.48043 5.05238 9.29289 5.23991C9.10536 5.42745 9 5.68181 9 5.94702V15.947C9 16.2122 9.10536 16.4666 9.29289 16.6541C9.48043 16.8417 9.73478 16.947 10 16.947C10.2652 16.947 10.5196 16.8417 10.7071 16.6541C10.8946 16.4666 11 16.2122 11 15.947V5.94702C11 5.68181 10.8946 5.42745 10.7071 5.23991C10.5196 5.05238 10.2652 4.94702 10 4.94702ZM5 10.947C4.73478 10.947 4.48043 11.0524 4.29289 11.2399C4.10536 11.4275 4 11.6818 4 11.947V15.947C4 16.2122 4.10536 16.4666 4.29289 16.6541C4.48043 16.8417 4.73478 16.947 5 16.947C5.26522 16.947 5.51957 16.8417 5.70711 16.6541C5.89464 16.4666 6 16.2122 6 15.947V11.947C6 11.6818 5.89464 11.4275 5.70711 11.2399C5.51957 11.0524 5.26522 10.947 5 10.947ZM15 8.94702C14.7348 8.94702 14.4804 9.05238 14.2929 9.23991C14.1054 9.42745 14 9.6818 14 9.94702V15.947C14 16.2122 14.1054 16.4666 14.2929 16.6541C14.4804 16.8417 14.7348 16.947 15 16.947C15.2652 16.947 15.5196 16.8417 15.7071 16.6541C15.8946 16.4666 16 16.2122 16 15.947V9.94702C16 9.6818 15.8946 9.42745 15.7071 9.23991C15.5196 9.05238 15.2652 8.94702 15 8.94702ZM17 0.947021H3C2.20435 0.947021 1.44129 1.26309 0.87868 1.8257C0.316071 2.38831 0 3.15137 0 3.94702V17.947C0 18.7427 0.316071 19.5057 0.87868 20.0683C1.44129 20.631 2.20435 20.947 3 20.947H17C17.7956 20.947 18.5587 20.631 19.1213 20.0683C19.6839 19.5057 20 18.7427 20 17.947V3.94702C20 3.15137 19.6839 2.38831 19.1213 1.8257C18.5587 1.26309 17.7956 0.947021 17 0.947021ZM18 17.947C18 18.2122 17.8946 18.4666 17.7071 18.6541C17.5196 18.8417 17.2652 18.947 17 18.947H3C2.73478 18.947 2.48043 18.8417 2.29289 18.6541C2.10536 18.4666 2 18.2122 2 17.947V3.94702C2 3.6818 2.10536 3.42745 2.29289 3.23991C2.48043 3.05238 2.73478 2.94702 3 2.94702H17C17.2652 2.94702 17.5196 3.05238 17.7071 3.23991C17.8946 3.42745 18 3.6818 18 3.94702V17.947Z" fill="white"/>
</svg>
