<svg width="19" height="21" viewBox="0 0 19 21" fill="none" xmlns="http://www.w3.org/2000/svg">
<path d="M18.6946 8.73116L16.968 7.0103C17.3862 6.33017 17.6106 5.54814 17.6167 4.74916C17.6147 3.89716 17.361 3.06483 16.8876 2.35723C16.4142 1.64964 15.7423 1.09849 14.9567 0.773353C14.1711 0.448217 13.307 0.363665 12.4735 0.53037C11.6401 0.697074 10.8745 1.10756 10.2735 1.71003C9.67255 2.31249 9.26308 3.07992 9.09678 3.91546C8.93049 4.75101 9.01483 5.61721 9.33917 6.40474C9.6635 7.19228 10.2133 7.86584 10.9191 8.34043C11.625 8.81502 12.4553 9.06935 13.3052 9.07133C14.1004 9.07228 14.8807 8.85424 15.5607 8.44101L17.2774 10.1719C17.3701 10.2657 17.4805 10.3401 17.6021 10.3909C17.7238 10.4417 17.8542 10.4678 17.986 10.4678C18.1177 10.4678 18.2482 10.4417 18.3698 10.3909C18.4914 10.3401 18.6018 10.2657 18.6946 10.1719C18.7912 10.0785 18.868 9.96665 18.9205 9.84288C18.973 9.71911 19 9.58601 19 9.45152C19 9.31703 18.973 9.18392 18.9205 9.06015C18.868 8.93638 18.7912 8.82449 18.6946 8.73116ZM14.942 6.44001C14.6146 6.76413 14.1984 6.98314 13.7464 7.0691C13.2944 7.15506 12.827 7.10407 12.404 6.92265C11.981 6.74122 11.6215 6.43758 11.3714 6.05047C11.1213 5.66336 10.9919 5.21032 10.9997 4.74916C11.0001 4.44591 11.0602 4.14572 11.1767 3.86585C11.2931 3.58598 11.4637 3.33194 11.6784 3.11835C12.1122 2.6864 12.6988 2.44397 13.3102 2.44397C13.9216 2.44397 14.5082 2.6864 14.942 3.11835C15.1565 3.33302 15.3267 3.588 15.4429 3.86869C15.559 4.14938 15.6188 4.45028 15.6188 4.75417C15.6188 5.05805 15.559 5.35895 15.4429 5.63964C15.3267 5.92034 15.1565 6.17532 14.942 6.38999V6.44001ZM16.9879 12.443C16.8608 12.4099 16.7284 12.4023 16.5983 12.4207C16.4683 12.439 16.3431 12.4829 16.23 12.5498C16.1168 12.6167 16.018 12.7054 15.9391 12.8107C15.8603 12.9159 15.8029 13.0358 15.7703 13.1634C15.3887 14.6727 14.5162 16.0114 13.2908 16.9681C12.0653 17.9248 10.5568 18.4448 9.00365 18.446H3.42463L4.06337 17.8157C4.24926 17.6282 4.35359 17.3747 4.35359 17.1104C4.35359 16.846 4.24926 16.5925 4.06337 16.405C3.41768 15.7446 2.90886 14.9625 2.56626 14.1039C2.22367 13.2453 2.05409 12.3271 2.0673 11.4025C2.07255 10.0221 2.4846 8.67405 3.2517 7.52768C4.0188 6.38131 5.10673 5.48776 6.37882 4.95927C6.62498 4.86109 6.82216 4.6689 6.92698 4.42498C7.03179 4.18106 7.03565 3.90539 6.93772 3.65862C6.83978 3.41184 6.64806 3.21418 6.40474 3.10911C6.16143 3.00403 5.88644 3.00016 5.64027 3.09834C4.33669 3.62217 3.1738 4.44513 2.24497 5.50113C1.31615 6.55714 0.647275 7.81677 0.29206 9.17887C-0.0631554 10.541 -0.0948145 11.9676 0.199625 13.3442C0.494065 14.7208 1.1064 16.009 1.98746 17.1053L0.310758 18.7362C0.172273 18.8769 0.0784614 19.0555 0.0411607 19.2496C0.00385998 19.4437 0.0247416 19.6445 0.101171 19.8267C0.176043 20.0094 0.303191 20.1658 0.46659 20.2762C0.629988 20.3866 0.822326 20.446 1.01936 20.447H9.00365C10.996 20.4483 12.9322 19.7855 14.5077 18.563C16.0831 17.3404 17.2084 15.6275 17.7065 13.6936C17.7441 13.5642 17.7551 13.4285 17.7391 13.2947C17.723 13.1608 17.6801 13.0317 17.613 12.9148C17.5459 12.798 17.4559 12.696 17.3485 12.615C17.2411 12.5339 17.1185 12.4754 16.9879 12.443Z" fill="white"/>
</svg>
