<svg width="20" height="21" viewBox="0 0 20 21" fill="none" xmlns="http://www.w3.org/2000/svg">
<path d="M10 0.183105C8.02219 0.183105 6.08879 0.769595 4.4443 1.86841C2.79981 2.96722 1.51809 4.52901 0.761209 6.35627C0.00433284 8.18353 -0.1937 10.1942 0.192152 12.134C0.578004 14.0738 1.53041 15.8556 2.92894 17.2542C4.32746 18.6527 6.10929 19.6051 8.0491 19.991C9.98891 20.3768 11.9996 20.1788 13.8268 19.4219C15.6541 18.665 17.2159 17.3833 18.3147 15.7388C19.4135 14.0943 20 12.1609 20 10.1831C19.9974 7.53175 18.9429 4.98975 17.0681 3.11496C15.1934 1.24017 12.6514 0.185753 10 0.183105ZM10 18.1831C8.41775 18.1831 6.87103 17.7139 5.55544 16.8349C4.23985 15.9558 3.21447 14.7064 2.60897 13.2446C2.00347 11.7828 1.84504 10.1742 2.15372 8.62238C2.4624 7.07053 3.22433 5.64507 4.34315 4.52625C5.46197 3.40743 6.88743 2.6455 8.43928 2.33682C9.99113 2.02814 11.5997 2.18657 13.0615 2.79207C14.5233 3.39757 15.7727 4.42295 16.6518 5.73854C17.5308 7.05413 18 8.60085 18 10.1831C17.9974 12.304 17.1537 14.3373 15.6539 15.837C14.1542 17.3367 12.1209 18.1805 10 18.1831ZM10 9.6831C9.73479 9.6831 9.48043 9.78846 9.2929 9.976C9.10536 10.1635 9 10.4179 9 10.6831V13.6831C9 13.9483 9.10536 14.2027 9.2929 14.3902C9.48043 14.5777 9.73479 14.6831 10 14.6831C10.2652 14.6831 10.5196 14.5777 10.7071 14.3902C10.8946 14.2027 11 13.9483 11 13.6831V10.6831C11 10.4179 10.8946 10.1635 10.7071 9.976C10.5196 9.78846 10.2652 9.6831 10 9.6831ZM10 5.6831C9.75278 5.6831 9.5111 5.75641 9.30554 5.89377C9.09998 6.03112 8.93976 6.22634 8.84515 6.45475C8.75054 6.68316 8.72579 6.93449 8.77402 7.17697C8.82225 7.41944 8.9413 7.64217 9.11612 7.81699C9.29094 7.9918 9.51366 8.11085 9.75614 8.15908C9.99862 8.20732 10.2499 8.18256 10.4784 8.08795C10.7068 7.99334 10.902 7.83313 11.0393 7.62757C11.1767 7.422 11.25 7.18033 11.25 6.9331C11.25 6.60158 11.1183 6.28364 10.8839 6.04922C10.6495 5.8148 10.3315 5.6831 10 5.6831Z" fill="white"/>
</svg>
