<svg width="20" height="21" viewBox="0 0 20 21" fill="none" xmlns="http://www.w3.org/2000/svg">
<path d="M18.8889 6.96375L12.2222 1.71004C11.6111 1.21867 10.82 0.947021 10 0.947021C9.18012 0.947021 8.38896 1.21867 7.77783 1.71004L1.11121 6.96375C0.758287 7.24749 0.476658 7.59556 0.285072 7.98478C0.0934866 8.374 -0.00365837 8.79544 0.000105326 9.22105V17.9506C0.000105326 18.7453 0.351292 19.5075 0.976409 20.0694C1.60153 20.6313 2.44937 20.947 3.33342 20.947H16.6667C17.5507 20.947 18.3985 20.6313 19.0237 20.0694C19.6488 19.5075 20 18.7453 20 17.9506V9.21106C20.0022 8.78714 19.9042 8.36761 19.7127 7.98022C19.5212 7.59282 19.2404 7.24637 18.8889 6.96375ZM12.2222 18.9494H7.77783V13.9554C7.77783 13.6905 7.89489 13.4364 8.10326 13.2491C8.31164 13.0618 8.59425 12.9566 8.88893 12.9566H11.1111C11.4058 12.9566 11.6884 13.0618 11.8968 13.2491C12.1052 13.4364 12.2222 13.6905 12.2222 13.9554V18.9494ZM17.7778 17.9506C17.7778 18.2155 17.6607 18.4696 17.4523 18.6569C17.244 18.8442 16.9613 18.9494 16.6667 18.9494H14.4444V13.9554C14.4444 13.1607 14.0933 12.3985 13.4681 11.8366C12.843 11.2747 11.9952 10.959 11.1111 10.959H8.88893C8.00488 10.959 7.15704 11.2747 6.53193 11.8366C5.90681 12.3985 5.55562 13.1607 5.55562 13.9554V18.9494H3.33342C3.03873 18.9494 2.75612 18.8442 2.54775 18.6569C2.33937 18.4696 2.22231 18.2155 2.22231 17.9506V9.21106C2.22251 9.06925 2.2563 8.9291 2.32144 8.79994C2.38658 8.67077 2.48157 8.55556 2.60009 8.46196L9.26671 3.21824C9.46947 3.05811 9.73014 2.9698 10 2.9698C10.2699 2.9698 10.5306 3.05811 10.7334 3.21824L17.4 8.46196C17.5185 8.55556 17.6135 8.67077 17.6786 8.79994C17.7438 8.9291 17.7776 9.06925 17.7778 9.21106V17.9506Z" fill="white"/>
</svg>
