<svg width="15" height="13" viewBox="0 0 15 13" fill="none" xmlns="http://www.w3.org/2000/svg">
<path d="M15 6.15202C14.9922 6.08311 14.9772 6.01523 14.955 5.94952V5.88202C14.9198 5.80443 14.8716 5.73342 14.8125 5.67202L10.3125 1.17202C10.2511 1.11294 10.1801 1.06475 10.1025 1.02952H10.0275C9.95457 0.990524 9.8762 0.962713 9.795 0.947021H2.25C1.65326 0.947021 1.08097 1.18407 0.65901 1.60603C0.237053 2.02799 0 2.60028 0 3.19702V10.697C0 11.2938 0.237053 11.8661 0.65901 12.288C1.08097 12.71 1.65326 12.947 2.25 12.947H12.75C13.3467 12.947 13.919 12.71 14.341 12.288C14.7629 11.8661 15 11.2938 15 10.697V6.15202ZM10.5 3.50452L12.4425 5.44702H11.25C11.0511 5.44702 10.8603 5.368 10.7197 5.22735C10.579 5.0867 10.5 4.89593 10.5 4.69702V3.50452ZM13.5 10.697C13.5 10.8959 13.421 11.0867 13.2803 11.2274C13.1397 11.368 12.9489 11.447 12.75 11.447H2.25C2.05109 11.447 1.86032 11.368 1.71967 11.2274C1.57902 11.0867 1.5 10.8959 1.5 10.697V3.19702C1.5 2.99811 1.57902 2.80734 1.71967 2.66669C1.86032 2.52604 2.05109 2.44702 2.25 2.44702H9V4.69702C9 5.29376 9.23705 5.86606 9.65901 6.28801C10.081 6.70997 10.6533 6.94702 11.25 6.94702H13.5V10.697ZM3.75 6.94702H6.75C6.94891 6.94702 7.13968 6.868 7.28033 6.72735C7.42098 6.5867 7.5 6.39593 7.5 6.19702C7.5 5.99811 7.42098 5.80734 7.28033 5.66669C7.13968 5.52604 6.94891 5.44702 6.75 5.44702H3.75C3.55109 5.44702 3.36032 5.52604 3.21967 5.66669C3.07902 5.80734 3 5.99811 3 6.19702C3 6.39593 3.07902 6.5867 3.21967 6.72735C3.36032 6.868 3.55109 6.94702 3.75 6.94702ZM3.75 8.44702C3.55109 8.44702 3.36032 8.52604 3.21967 8.66669C3.07902 8.80734 3 8.99811 3 9.19702C3 9.39593 3.07902 9.5867 3.21967 9.72735C3.36032 9.868 3.55109 9.94702 3.75 9.94702H11.25C11.4489 9.94702 11.6397 9.868 11.7803 9.72735C11.921 9.5867 12 9.39593 12 9.19702C12 8.99811 11.921 8.80734 11.7803 8.66669C11.6397 8.52604 11.4489 8.44702 11.25 8.44702H3.75Z" fill="white"/>
</svg>
