<svg width="20" height="20" viewBox="0 0 20 20" fill="none" xmlns="http://www.w3.org/2000/svg">
<circle cx="10" cy="10" r="9" fill="#BFBFBF" stroke="white" stroke-width="2"/>
<path d="M13.7934 10.6306L10.5302 7.23677C10.4595 7.16174 10.3754 7.1022 10.2827 7.06156C10.19 7.02092 10.0906 7 9.99016 7C9.88974 7 9.79032 7.02092 9.69763 7.06156C9.60494 7.1022 9.52082 7.16174 9.4501 7.23677L6.225 10.6306C6.1537 10.705 6.09711 10.7936 6.0585 10.8911C6.01988 10.9886 6 11.0933 6 11.1989C6 11.3046 6.01988 11.4092 6.0585 11.5068C6.09711 11.6043 6.1537 11.6928 6.225 11.7672C6.36751 11.9163 6.5603 12 6.76125 12C6.9622 12 7.15498 11.9163 7.2975 11.7672L9.99016 8.93369L12.6828 11.7672C12.8245 11.9151 13.0157 11.9985 13.2153 11.9994C13.3154 12 13.4146 11.9798 13.5073 11.94C13.6 11.9001 13.6842 11.8414 13.7553 11.7672C13.8292 11.6955 13.8888 11.6091 13.9307 11.513C13.9726 11.4169 13.996 11.313 13.9995 11.2073C14.0031 11.1016 13.9867 10.9962 13.9513 10.8972C13.9159 10.7983 13.8622 10.7076 13.7934 10.6306Z" fill="white"/>
</svg>
