<svg width="29" height="28" viewBox="0 0 29 28" fill="none" xmlns="http://www.w3.org/2000/svg">
<path d="M14.9155 0.555664C11.5911 0.555591 8.37511 1.72513 5.8431 3.855C3.31108 5.98488 1.62828 8.93607 1.09581 12.1805C0.563349 15.4249 1.21598 18.7507 2.93692 21.5629C4.65786 24.375 7.33478 26.49 10.4887 27.5292C11.1887 27.651 11.4505 27.2357 11.4505 26.8717C11.4505 26.5437 11.4337 25.4529 11.4337 24.2944C7.91544 24.9339 7.00544 23.4459 6.72543 22.6679C6.41463 21.9106 5.92213 21.2393 5.29042 20.7121C4.80042 20.4533 4.10041 19.8124 5.27222 19.7958C5.72009 19.8436 6.14968 19.9975 6.52454 20.2445C6.89939 20.4915 7.20844 20.8243 7.42544 21.2146C7.61686 21.5546 7.87428 21.854 8.18294 22.0955C8.49159 22.337 8.84542 22.516 9.22415 22.6221C9.60288 22.7281 9.99905 22.7593 10.39 22.7137C10.7809 22.6682 11.1589 22.5468 11.5023 22.3565C11.5624 21.6523 11.8799 20.9939 12.3955 20.5045C9.28045 20.1584 6.02543 18.9653 6.02543 13.6708C6.00673 12.2951 6.52002 10.9642 7.46044 9.9501C7.03332 8.75434 7.08339 7.44256 7.60044 6.28202C7.60044 6.28202 8.77225 5.91936 11.4505 7.7008C13.7413 7.07806 16.1597 7.07806 18.4505 7.7008C21.1274 5.90137 22.3006 6.28202 22.3006 6.28202C22.8176 7.44256 22.8677 8.75434 22.4406 9.9501C23.3847 10.9619 23.8986 12.2943 23.8756 13.6708C23.8756 18.9819 20.6024 20.1584 17.4887 20.5045C17.8224 20.8395 18.0794 21.2416 18.2422 21.6834C18.405 22.1252 18.4699 22.5965 18.4323 23.0652C18.4323 24.9172 18.4155 26.4052 18.4155 26.8717C18.4155 27.2357 18.6773 27.6676 19.3773 27.5292C22.5254 26.4813 25.1944 24.3613 26.9078 21.5478C28.6212 18.7343 29.2675 15.4103 28.7314 12.1692C28.1952 8.9281 26.5116 5.98086 23.9809 3.85359C21.4502 1.72631 18.2372 0.55745 14.9155 0.555664Z" fill="white"/>
</svg>
