<svg width="20" height="21" viewBox="0 0 20 21" fill="none" xmlns="http://www.w3.org/2000/svg">
<path d="M10 0.183105C8.05679 0.186794 6.15658 0.755008 4.53084 1.81853C2.9051 2.88206 1.62399 4.395 0.843549 6.17307C0.0631123 7.95113 -0.182965 9.91758 0.135289 11.8329C0.453544 13.7482 1.3224 15.5297 2.63601 16.9604C3.57422 17.9765 4.7129 18.7875 5.9803 19.3421C7.24771 19.8968 8.61635 20.1831 10 20.1831C11.3836 20.1831 12.7523 19.8968 14.0197 19.3421C15.2871 18.7875 16.4258 17.9765 17.364 16.9604C18.6776 15.5297 19.5465 13.7482 19.8647 11.8329C20.183 9.91758 19.9369 7.95113 19.1565 6.17307C18.376 4.395 17.0949 2.88206 15.4692 1.81853C13.8434 0.755008 11.9432 0.186794 10 0.183105ZM10 18.2017C7.92452 18.1986 5.93119 17.3912 4.43944 15.9494C4.89234 14.8478 5.6628 13.9056 6.6529 13.2425C7.643 12.5794 8.80804 12.2254 10 12.2254C11.192 12.2254 12.357 12.5794 13.3471 13.2425C14.3372 13.9056 15.1077 14.8478 15.5606 15.9494C14.0688 17.3912 12.0755 18.1986 10 18.2017ZM7.99619 8.19138C7.99619 7.79541 8.11372 7.40833 8.3339 7.07909C8.55408 6.74985 8.86703 6.49324 9.23318 6.34171C9.59932 6.19018 10.0022 6.15053 10.3909 6.22778C10.7796 6.30503 11.1367 6.49571 11.4169 6.77571C11.6971 7.0557 11.888 7.41243 11.9653 7.8008C12.0426 8.18916 12.0029 8.59171 11.8513 8.95754C11.6996 9.32337 11.4428 9.63605 11.1133 9.85604C10.7837 10.076 10.3963 10.1935 10 10.1935C9.46856 10.1935 8.95888 9.98252 8.5831 9.60706C8.20731 9.2316 7.99619 8.72236 7.99619 8.19138ZM16.9232 14.1976C16.028 12.6678 14.6502 11.4778 13.0057 10.8141C13.5158 10.2362 13.8482 9.52342 13.963 8.76141C14.0778 7.9994 13.97 7.22049 13.6527 6.51815C13.3354 5.81581 12.8219 5.21987 12.174 4.80184C11.5261 4.38382 10.7713 4.16147 10 4.16147C9.22875 4.16147 8.47387 4.38382 7.82596 4.80184C7.17805 5.21987 6.66463 5.81581 6.34731 6.51815C6.02999 7.22049 5.92224 7.9994 6.037 8.76141C6.15176 9.52342 6.48415 10.2362 6.99429 10.8141C5.34977 11.4778 3.97202 12.6678 3.07685 14.1976C2.36254 12.9838 1.98553 11.6015 1.98478 10.1935C1.98478 8.06952 2.82923 6.03259 4.33238 4.53074C5.83553 3.0289 7.87423 2.18517 10 2.18517C12.1258 2.18517 14.1645 3.0289 15.6676 4.53074C17.1708 6.03259 18.0152 8.06952 18.0152 10.1935C18.0145 11.6015 17.6375 12.9838 16.9232 14.1976Z" fill="white"/>
</svg>
